<svg width="14" height="11" viewBox="0 0 14 11" fill="none" xmlns="http://www.w3.org/2000/svg">
<path d="M11.8521 1.20111C10.9627 0.795215 10.0032 0.501292 9.0017 0.333336C8.98069 0.333336 8.96668 0.340334 8.95267 0.35433C8.82661 0.571274 8.69355 0.8512 8.5955 1.06814C7.51697 0.907186 6.44545 0.907186 5.39494 1.06814C5.30389 0.844202 5.16383 0.571274 5.03776 0.35433C5.03076 0.340334 5.00975 0.333336 4.99574 0.333336C3.99426 0.501292 3.03479 0.802213 2.14535 1.20111C2.13835 1.20111 2.13135 1.20811 2.12434 1.21511C0.310461 3.88141 -0.186782 6.48473 0.0583376 9.05306C0.0583376 9.06705 0.065341 9.08105 0.0793478 9.08805C1.26993 9.95582 2.43249 10.4807 3.56705 10.8306C3.58806 10.8376 3.60206 10.8306 3.61607 10.8166C3.8822 10.4527 4.12732 10.0748 4.33042 9.66889C4.34443 9.6479 4.33042 9.61991 4.30941 9.60591C3.93123 9.46595 3.56705 9.29099 3.21688 9.09504C3.18886 9.08105 3.18886 9.03906 3.20987 9.02506C3.27991 8.96908 3.35695 8.91309 3.42698 8.85711C3.44099 8.85011 3.45499 8.84311 3.469 8.85011C5.75912 9.87884 8.24533 9.87884 10.5074 8.85011C10.5214 8.84311 10.5424 8.84311 10.5565 8.85711C10.6265 8.91309 10.6965 8.96908 10.7736 9.02506C10.8016 9.04606 10.7946 9.08105 10.7666 9.09504C10.4164 9.29799 10.0522 9.46595 9.67402 9.60591C9.64601 9.61291 9.63901 9.6409 9.65301 9.66889C9.86312 10.0678 10.1012 10.4527 10.3674 10.8096C10.3814 10.8236 10.3954 10.8306 10.4164 10.8236C11.5579 10.4737 12.7205 9.94882 13.9181 9.08805C13.9251 9.08105 13.9321 9.06705 13.9391 9.05306C14.2332 6.07883 13.4489 3.50351 11.8661 1.21511C11.8661 1.21511 11.8591 1.20811 11.8521 1.20111ZM4.67359 7.49246C3.98025 7.49246 3.41297 6.86963 3.41297 6.10683C3.41297 5.34403 3.97325 4.72119 4.67359 4.72119C5.38093 4.72119 5.9412 5.35102 5.9342 6.10683C5.9342 6.86963 5.37393 7.49246 4.67359 7.49246ZM9.33086 7.49246C8.63752 7.49246 8.07024 6.86963 8.07024 6.10683C8.07024 5.34403 8.63052 4.72119 9.33086 4.72119C10.0382 4.72119 10.5985 5.35102 10.5915 6.10683C10.5915 6.86963 10.0382 7.49246 9.33086 7.49246Z" fill="#AF48FF"/>
</svg>
