<svg width="14" height="12" viewBox="0 0 14 12" fill="none" xmlns="http://www.w3.org/2000/svg">
<path d="M6.99453 0.0431676C3.61348 0.0418004 0.875 2.77891 0.875 6.15723C0.875 8.82871 2.58809 11.0996 4.97383 11.9336C5.29512 12.0143 5.2459 11.7859 5.2459 11.6301V10.5705C3.39063 10.7879 3.31543 9.56016 3.19102 9.35508C2.93945 8.92578 2.34473 8.81641 2.52246 8.61133C2.94492 8.39395 3.37559 8.66602 3.87461 9.40293C4.23555 9.9375 4.93965 9.84727 5.29648 9.7584C5.37441 9.43711 5.54121 9.15 5.7709 8.92715C3.84863 8.58262 3.04746 7.40957 3.04746 6.01504C3.04746 5.33828 3.27031 4.71621 3.70781 4.21446C3.42891 3.38731 3.73379 2.6791 3.7748 2.57383C4.56914 2.50274 5.39492 3.14258 5.45918 3.19317C5.91035 3.07149 6.42578 3.00723 7.00273 3.00723C7.58242 3.00723 8.09922 3.07422 8.55449 3.19727C8.70898 3.07969 9.47461 2.53008 10.2129 2.59707C10.2525 2.70235 10.5506 3.39414 10.2881 4.21036C10.7311 4.71348 10.9566 5.34102 10.9566 6.01914C10.9566 7.41641 10.15 8.59082 8.22227 8.92989C8.38738 9.09227 8.51849 9.28592 8.60792 9.49953C8.69736 9.71315 8.74333 9.94244 8.74316 10.174V11.7121C8.7541 11.8352 8.74316 11.9568 8.94824 11.9568C11.3695 11.1406 13.1127 8.85332 13.1127 6.1586C13.1127 2.77891 10.3729 0.0431676 6.99453 0.0431676V0.0431676Z" fill="#AF48FF"/>
</svg>
